<?xml version="1.0" encoding="utf-8"?><svg xmlns="http://www.w3.org/2000/svg" xmlns:xlink="http://www.w3.org/1999/xlink"><symbol viewBox="0 0 512 512" id="chevron" xmlns="http://www.w3.org/2000/svg"><path d="M367.954 213.588L160.67 5.872c-7.804-7.819-20.467-7.831-28.284-.029-7.819 7.802-7.832 20.465-.03 28.284l207.299 207.731c7.798 7.798 7.798 20.486-.015 28.299L132.356 477.873c-7.802 7.819-7.789 20.482.03 28.284A19.935 19.935 0 00146.513 512c5.125 0 10.25-1.958 14.157-5.873l207.269-207.701c23.394-23.394 23.394-61.459.015-84.838z"/></symbol><symbol viewBox="0 0 512.001 512.001" id="close" xmlns="http://www.w3.org/2000/svg"><path d="M284.286 256.002L506.143 34.144c7.811-7.811 7.811-20.475 0-28.285-7.811-7.81-20.475-7.811-28.285 0L256 227.717 34.143 5.859c-7.811-7.811-20.475-7.811-28.285 0-7.81 7.811-7.811 20.475 0 28.285l221.857 221.857L5.858 477.859c-7.811 7.811-7.811 20.475 0 28.285a19.938 19.938 0 0014.143 5.857 19.94 19.94 0 0014.143-5.857L256 284.287l221.857 221.857c3.905 3.905 9.024 5.857 14.143 5.857s10.237-1.952 14.143-5.857c7.811-7.811 7.811-20.475 0-28.285L284.286 256.002z"/></symbol></svg>